<?xml version="1.0" encoding="utf-8"?>
<!-- Generator: Adobe Illustrator 26.3.1, SVG Export Plug-In . SVG Version: 6.00 Build 0)  -->
<svg version="1.1" id="Layer_1" xmlns="http://www.w3.org/2000/svg" xmlns:xlink="http://www.w3.org/1999/xlink" x="0px" y="0px"
	 viewBox="0 0 295 228" style="enable-background:new 0 0 295 228;" xml:space="preserve">
<style type="text/css">
	.st0{fill:#595959;}
	.st1{fill:#1BB716;}
</style>
<g id="Page-1">
	<g id="cloud-upload" transform="translate(0.000000, -0.200000)">
		<path id="Shape" class="st0" d="M227,75.3c-2.8-41.8-37.6-74.9-80-74.9c-42.4,0-77.3,33.1-80,74.9C29,80.1,0,112.4,0,151.2
			c0,42.2,34.4,76.6,76.6,76.6h116.5c3.3,0,6-2.7,6-6c0-3.3-2.7-6-6-6H76.6c-35.6,0-64.6-29-64.6-64.6c0-34.3,26.8-62.6,61.1-64.4
			c3.2-0.2,5.7-2.8,5.7-6c0-0.1,0-0.2,0-0.4c0.1-37.5,30.7-68,68.2-68c37.6,0,68.1,30.5,68.2,68.1c0,0.1,0,0.2,0,0.3
			c0,3.2,2.5,5.8,5.7,6c34.4,1.7,61.3,30,61.3,64.4c0,19.5-8.7,37.8-23.9,50.1c-2.6,2.1-3,5.9-0.9,8.4c2.1,2.6,5.9,3,8.4,0.9
			c18-14.6,28.3-36.3,28.3-59.4C294.2,112.3,265.1,79.9,227,75.3z"/>
		<path id="Shape_00000152981719428932686590000011740787905676300195_" class="st1" d="M141,108.1v76.5c0,3.3,2.7,6,6,6s6-2.7,6-6
			v-76.5c0-3.3-2.7-6-6-6S141,104.8,141,108.1z"/>
		<path id="Shape_00000145056459539419954080000005070811804295408319_" class="st1" d="M181.3,119.2c1.5,0,3.1-0.6,4.2-1.8
			c2.3-2.3,2.3-6.1,0-8.5l-34.3-34.3c-2.3-2.3-6.1-2.3-8.5,0L108.4,109c-2.3,2.3-2.3,6.1,0,8.5c2.3,2.3,6.1,2.3,8.5,0L147,87.4
			l30.1,30.1C178.2,118.6,179.7,119.2,181.3,119.2z"/>
	</g>
</g>
</svg>
